<?xml version="1.0" encoding="UTF-8"?>
<svg xmlns="http://www.w3.org/2000/svg" width="1000" height="600" viewBox="0 0 1000 600" fill="none">
  <g clip-path="url(#clip0_242_2)">
    <rect width="1000" height="600" fill="white"></rect>
    <g clip-path="url(#clip1_242_2)">
      <path d="M271.529 104H115V416.8H271.529V104Z" fill="#154273"></path>
      <path d="M196.082 345.982H193.358V338.444H196.082V345.982ZM208.385 312.7H205.661V305.162H208.385V312.7ZM157.92 299.688C157.701 299.688 156.292 299.688 156.292 299.969C156.292 300.251 156.95 300.126 157.92 300.282C160.112 300.657 160.957 301.752 162.491 301.752C163.868 301.752 165.308 300.814 164.745 298.812C164.651 298.468 164.463 298.562 164.4 298.781C164.181 299.688 163.086 300.188 161.927 300.188C160.487 300.188 160.205 299.688 157.92 299.688ZM142.925 307.226C143.175 307.57 145.742 310.886 141.798 312.168C141.61 312.231 141.579 312.387 141.829 312.513C144.74 313.732 146.149 311.48 146.149 311.48C147.621 314.859 145.367 316.704 145.367 316.704C145.68 317.298 147.088 318.331 149.186 318.8C150 318.362 151.127 317.549 151.596 316.297C151.596 316.297 152.16 317.768 151.659 319.175C157.607 319.707 159.705 314.952 164.307 315.828C164.432 315.859 164.494 315.766 164.494 315.641C164.494 312.7 162.71 307.351 157.012 306.257C151.346 305.162 152.88 302.847 152.88 302.847C155.259 302.753 156.637 303.785 156.637 303.785C157.075 303.066 156.449 302.315 156.449 302.315C156.668 302.034 156.793 301.064 156.793 301.064C154.101 301.064 153.412 300.47 153.412 300.47C153.005 298.874 154.101 296.622 158.108 299.031C159.11 298.155 159.016 296.779 159.016 296.779C159.329 296.622 159.517 296.153 159.517 295.965C159.517 295.308 156.324 293.526 155.51 293.307C155.322 292.337 154.07 290.961 150.313 291.461C148.528 291.68 147.245 291.211 147.84 290.179C147.934 289.991 147.621 289.96 147.464 290.147C147.057 290.554 146.494 291.711 148.028 292.493C149.749 293.369 149.843 295.09 149.875 295.34C149.906 295.715 149.468 295.746 149.374 295.371C148.591 292.462 144.584 291.836 142.236 293.369C142.361 294.933 144.052 295.965 144.96 295.965C145.492 295.965 146.212 295.434 146.212 294.714C146.212 294.37 146.4 294.401 146.494 294.683C146.869 295.715 145.335 297.873 143.081 296.56C140.765 298.874 141.704 301.752 141.923 302.784C142.33 304.661 141.422 306.507 139.7 305.662C139.606 305.631 139.512 305.6 139.512 305.787C139.544 306.913 141.078 308.258 142.925 307.226ZM155.697 295.559C154.602 296.779 152.849 296.497 152.41 294.495C154.664 294.37 155.604 294.589 155.697 295.559ZM224.789 300.188C223.631 300.188 222.535 299.688 222.316 298.781C222.253 298.562 222.066 298.468 221.972 298.812C221.408 300.814 222.848 301.752 224.226 301.752C225.76 301.752 226.605 300.657 228.796 300.282C229.767 300.126 230.424 300.282 230.424 299.969C230.424 299.688 229.015 299.688 228.796 299.688C226.542 299.688 226.229 300.188 224.789 300.188ZM247.204 305.725C247.204 305.537 247.11 305.568 247.016 305.6C245.294 306.444 244.387 304.63 244.794 302.722C245.013 301.658 245.952 298.812 243.635 296.497C241.35 297.811 239.816 295.653 240.223 294.62C240.317 294.339 240.505 294.308 240.505 294.652C240.505 295.371 241.225 295.903 241.757 295.903C242.665 295.903 244.355 294.871 244.481 293.307C242.133 291.774 238.125 292.399 237.343 295.308C237.249 295.684 236.811 295.653 236.842 295.277C236.842 295.027 236.967 293.307 238.689 292.431C240.254 291.649 239.691 290.491 239.252 290.085C239.096 289.928 238.752 289.96 238.877 290.116C239.472 291.148 238.188 291.617 236.435 291.398C232.678 290.898 231.457 292.306 231.238 293.244C230.424 293.463 227.231 295.246 227.231 295.903C227.231 296.09 227.419 296.591 227.732 296.716C227.732 296.716 227.669 298.061 228.64 298.968C232.616 296.56 233.743 298.812 233.336 300.407C233.336 300.407 232.616 300.97 229.923 301.001C229.923 301.001 230.049 301.971 230.268 302.253C230.268 302.253 229.642 303.035 230.08 303.723C230.08 303.723 231.457 302.691 233.837 302.784C233.837 302.784 235.371 305.099 229.704 306.194C224.038 307.289 222.222 312.638 222.222 315.578C222.222 315.734 222.285 315.797 222.41 315.766C227.012 314.921 229.109 319.676 235.057 319.113C234.525 317.705 235.12 316.235 235.12 316.235C235.59 317.486 236.717 318.331 237.531 318.737C239.659 318.268 241.037 317.267 241.35 316.641C241.35 316.641 239.096 314.796 240.567 311.418C240.567 311.418 241.976 313.67 244.887 312.45C245.138 312.325 245.075 312.168 244.919 312.106C240.974 310.823 243.541 307.508 243.792 307.164C245.639 308.258 247.204 306.913 247.204 305.725ZM234.306 294.495C233.868 296.497 232.115 296.779 231.019 295.559C231.113 294.589 232.083 294.37 234.306 294.495ZM192.325 261.057C192.325 261.557 192.544 261.995 192.701 262.246C193.045 262.746 192.983 263.028 192.826 263.184C192.67 263.34 192.388 263.403 191.887 263.059C191.636 262.871 191.198 262.683 190.697 262.683C189.852 262.683 189.414 263.247 189.414 263.716C189.414 264.185 189.852 264.748 190.697 264.748C191.198 264.748 191.636 264.529 191.887 264.373C192.388 264.028 192.67 264.091 192.826 264.247C192.983 264.404 192.763 266.124 192.544 267.501C191.136 267.813 190.447 268.939 190.447 269.596C190.447 271.317 192.263 272.286 193.358 272.881C194.423 272.318 196.27 271.317 196.27 269.596C196.27 268.939 195.581 267.782 194.172 267.501C193.984 266.156 193.734 264.404 193.89 264.247C194.047 264.091 194.329 264.028 194.83 264.373C195.08 264.56 195.518 264.748 196.019 264.748C196.864 264.748 197.303 264.185 197.303 263.716C197.303 263.247 196.864 262.683 196.019 262.683C195.518 262.683 195.08 262.902 194.83 263.059C194.329 263.403 194.047 263.34 193.89 263.184C193.734 263.028 193.671 262.746 194.016 262.246C194.203 261.995 194.391 261.557 194.391 261.057C194.391 260.212 193.828 259.774 193.358 259.774C192.889 259.774 192.325 260.212 192.325 261.057ZM193.358 273.757C192.2 273.757 191.261 274.695 191.261 275.852C191.261 277.01 192.2 277.948 193.358 277.948C194.517 277.948 195.456 277.01 195.456 275.852C195.456 274.695 194.517 273.757 193.358 273.757ZM193.358 293.807C201.717 293.807 206.413 295.402 206.413 295.402C206.444 291.18 206.444 288.834 208.855 289.178C207.54 285.643 213.237 284.235 213.237 279.637C213.237 276.603 211.077 276.259 210.451 276.259C208.573 276.259 208.855 277.479 207.258 277.479C207.07 277.479 206.851 277.416 206.851 277.573C206.851 278.105 207.289 279.012 208.041 279.012C209.042 279.012 209.042 278.011 209.794 278.011C210.107 278.011 210.576 278.261 210.576 279.293C210.576 281.264 209.293 283.422 207.759 285.111C207.415 284.642 206.945 284.329 206.35 284.329C205.442 284.329 204.66 285.268 204.66 286.425C204.66 286.863 204.722 287.176 204.879 287.52C204.378 287.801 203.908 287.958 203.595 287.958C202.906 287.958 201.873 287.676 201.873 286.175C201.873 282.828 206.35 279.887 206.35 275.633C206.35 273.6 205.004 271.598 202.155 271.598C199.118 271.598 199.682 274.351 197.052 274.351C196.927 274.351 196.833 274.382 196.833 274.507C196.833 274.695 197.303 276.228 198.649 276.228C200.089 276.228 200.496 273.725 201.811 273.725C202.28 273.725 203 274.007 203 275.696C203 277.01 202.343 279.168 201.404 281.201C201.059 280.857 200.59 280.607 200.089 280.607C198.962 280.607 198.148 281.702 198.148 282.984C198.148 283.797 198.461 284.611 199.025 285.111C198.367 285.956 197.678 286.644 196.771 286.644C194.955 286.644 194.172 285.612 194.172 284.486C194.172 283.266 196.395 282.828 196.395 280.951C196.395 279.668 195.55 278.949 194.767 278.949C193.89 278.949 193.452 279.512 193.358 279.512C193.264 279.512 192.826 278.949 191.949 278.949C191.136 278.949 190.322 279.668 190.322 280.951C190.322 282.828 192.544 283.297 192.544 284.486C192.544 285.612 191.73 286.644 189.946 286.644C189.038 286.644 188.349 285.956 187.692 285.111C188.255 284.579 188.568 283.797 188.568 282.984C188.568 281.67 187.755 280.607 186.628 280.607C186.095 280.607 185.657 280.857 185.313 281.201C184.374 279.137 183.716 277.01 183.716 275.696C183.716 274.007 184.436 273.725 184.906 273.725C186.189 273.725 186.596 276.228 188.068 276.228C189.414 276.228 189.883 274.695 189.883 274.507C189.883 274.413 189.789 274.351 189.664 274.351C187.034 274.351 187.598 271.598 184.561 271.598C181.744 271.598 180.366 273.6 180.366 275.633C180.366 279.887 184.843 282.828 184.843 286.175C184.843 287.676 183.81 287.958 183.121 287.958C182.777 287.958 182.339 287.801 181.838 287.52C181.994 287.144 182.057 286.863 182.057 286.425C182.057 285.268 181.274 284.329 180.366 284.329C179.803 284.329 179.333 284.642 178.989 285.111C177.455 283.422 176.171 281.264 176.171 279.293C176.171 278.292 176.641 278.011 176.954 278.011C177.674 278.011 177.705 279.012 178.707 279.012C179.459 279.012 179.897 278.105 179.897 277.573C179.897 277.416 179.678 277.479 179.49 277.479C177.893 277.479 178.175 276.259 176.297 276.259C175.671 276.259 173.51 276.603 173.51 279.637C173.51 284.267 179.208 285.643 177.893 289.178C180.304 288.834 180.272 291.18 180.335 295.402C180.304 295.402 185 293.807 193.358 293.807ZM178.05 300.032C175.764 300.532 174.137 301.001 173.416 301.22C173.448 300.219 173.823 299.281 174.731 299.093C174.857 299.062 174.888 298.906 174.763 298.843C172.728 297.498 171.663 300.063 171.632 300.157C170.912 300.094 169.816 300.313 169.816 301.283C169.816 304.192 163.18 305.787 161.646 306.038C164.369 307.07 165.496 310.511 165.496 310.511C167.468 308.54 169.754 306.82 170.286 306.82C170.818 306.82 171.006 307.476 171.037 307.852C171.037 307.977 171.162 308.008 171.256 307.914C172.289 306.382 171.789 306.038 171.695 305.568C171.632 305.224 171.726 303.879 173.229 304.036V323.398L172.446 323.554C172.102 323.617 169.253 321.208 166.028 318.956C162.773 316.704 161.051 318.049 157.357 320.051C152.504 322.678 147.621 320.301 147.621 320.301C143.457 323.273 142.017 331.906 142.017 331.906C141.172 332.25 139.794 332.626 138.511 332.626C135.317 332.626 134.754 330.686 134.754 329.56C134.754 324.649 140.921 322.553 140.921 317.705C140.921 316.516 140.389 311.762 134.472 311.762C133.721 311.762 129.213 311.762 129.181 311.762C126.959 311.762 126.427 310.167 126.114 309.572C125.988 309.322 125.769 309.478 125.863 309.666C126.02 310.073 125.613 310.698 125.613 311.918C125.613 313.889 126.771 315.077 128.931 315.077C129.902 315.077 130.841 314.796 131.122 314.608C131.31 314.483 131.436 314.671 131.342 314.796C130.402 315.891 130.34 317.955 130.715 318.424C130.809 318.55 130.935 318.518 130.935 318.424C131.467 316.36 133.408 314.389 136.037 314.389C139.262 314.389 139.231 317.111 139.231 317.768C139.231 321.709 132.312 324.587 132.312 330.029C132.312 335.535 138.135 336.692 141.485 335.847C141.297 341.353 134.973 343.229 134.785 339.288C134.785 339.101 134.629 339.069 134.535 339.319C133.752 341.259 134.065 342.979 136.507 343.511C136.664 343.542 136.601 343.636 136.444 343.761C134.003 345.294 135.317 351.362 135.443 353.145C135.63 355.71 133.063 355.397 132.844 355.335C132.75 355.304 132.625 355.335 132.813 355.554C134.629 357.775 136.883 355.741 136.883 355.741C138.573 356.273 137.54 357.712 136.382 358.463C136.194 358.588 136.225 358.713 136.413 358.713C136.664 358.744 139.293 358.963 139.763 356.868C140.921 358.244 142.643 357.743 142.987 357.556C143.488 357.305 145.961 356.398 146.181 359.151C146.181 359.339 146.306 359.214 146.4 359.12C148.247 356.774 146.274 355.335 145.147 355.178C145.241 355.053 146.713 353.802 148.059 355.523C148.153 355.648 148.247 355.679 148.247 355.429C148.403 352.457 145.993 352.207 144.427 353.489C144.365 353.177 143.833 351.519 146.181 351.581C146.243 351.581 146.337 351.487 146.243 351.394C144.427 349.454 142.925 351.206 142.549 351.644C141.735 352.613 139.7 352.207 139.512 352.207C140.138 341.916 149.217 345.575 150.469 340.571C150.532 340.32 150.657 340.414 150.657 340.508C151.002 341.728 154.07 341.884 154.633 339.507C154.664 339.351 154.633 339.257 154.539 339.351C151.909 341.978 145.993 333.783 154.07 327.12C160.957 321.459 167.124 324.618 169.472 326.463C169.597 327.277 169.096 327.558 168.783 327.652C168.658 327.683 168.627 327.777 168.815 327.871C169.472 328.121 170.38 328.027 170.818 327.433C172.289 328.465 171.037 329.779 170.442 330.123C170.286 330.217 170.349 330.311 170.474 330.342C171.82 330.592 172.947 329.216 173.01 328.403L173.229 328.528V334.377C173.229 342.698 182.84 343.855 193.39 350.893C203.94 343.824 213.519 342.698 213.519 334.377V328.528L213.738 328.403C213.801 329.185 214.897 330.592 216.274 330.342C216.399 330.311 216.462 330.217 216.305 330.123C215.711 329.748 214.427 328.465 215.93 327.433C216.368 328.059 217.276 328.121 217.933 327.871C218.121 327.808 218.09 327.683 217.965 327.652C217.651 327.558 217.151 327.277 217.276 326.463C219.624 324.587 225.791 321.427 232.678 327.12C240.755 333.783 234.838 341.947 232.209 339.351C232.083 339.226 232.083 339.351 232.115 339.507C232.678 341.916 235.746 341.728 236.091 340.508C236.122 340.414 236.247 340.32 236.278 340.571C237.531 345.575 246.578 341.916 247.235 352.207C247.048 352.238 245.013 352.613 244.199 351.644C243.854 351.237 242.352 349.454 240.505 351.394C240.379 351.519 240.505 351.581 240.567 351.581C242.915 351.519 242.414 353.177 242.32 353.489C240.755 352.207 238.345 352.457 238.501 355.429C238.501 355.648 238.595 355.648 238.689 355.523C240.035 353.802 241.506 355.053 241.6 355.178C240.505 355.335 238.501 356.774 240.348 359.12C240.442 359.214 240.536 359.339 240.567 359.151C240.818 356.398 243.26 357.274 243.76 357.556C244.105 357.743 245.827 358.244 246.985 356.868C247.455 358.963 250.084 358.744 250.335 358.713C250.523 358.713 250.523 358.588 250.366 358.463C249.239 357.712 248.175 356.273 249.865 355.741C249.865 355.741 252.119 357.775 253.935 355.554C254.091 355.366 253.997 355.304 253.904 355.335C253.684 355.397 251.117 355.71 251.305 353.145C251.43 351.362 252.745 345.294 250.303 343.761C250.147 343.667 250.084 343.574 250.241 343.511C252.683 342.979 252.996 341.259 252.213 339.319C252.119 339.069 251.963 339.132 251.963 339.288C251.775 343.229 245.482 341.353 245.263 335.847C248.644 336.723 254.436 335.535 254.436 330.029C254.436 324.618 247.517 321.709 247.517 317.768C247.517 317.111 247.486 314.389 250.71 314.389C253.34 314.389 255.281 316.36 255.813 318.424C255.844 318.518 255.938 318.55 256.032 318.424C256.408 317.924 256.345 315.891 255.406 314.796C255.312 314.702 255.406 314.483 255.625 314.608C255.907 314.796 256.846 315.077 257.817 315.077C259.977 315.077 261.135 313.889 261.135 311.918C261.135 310.698 260.697 310.073 260.885 309.666C260.979 309.478 260.728 309.353 260.634 309.572C260.321 310.198 259.758 311.762 257.566 311.762C257.535 311.762 253.027 311.762 252.276 311.762C246.359 311.762 245.827 316.548 245.827 317.705C245.827 322.553 251.994 324.649 251.994 329.56C251.994 330.717 251.399 332.626 248.237 332.626C246.922 332.626 245.545 332.25 244.731 331.906C244.731 331.906 243.322 323.304 239.127 320.301C239.127 320.301 234.244 322.678 229.391 320.051C225.697 318.049 223.944 316.704 220.688 318.956C217.432 321.208 214.615 323.617 214.27 323.554L213.488 323.398V304.036C214.991 303.879 215.084 305.224 215.022 305.568C214.928 306.006 214.458 306.382 215.46 307.914C215.554 308.039 215.648 307.977 215.679 307.852C215.711 307.476 215.93 306.82 216.431 306.82C216.931 306.82 219.248 308.54 221.22 310.511C221.22 310.511 222.347 307.101 225.071 306.038C223.537 305.787 216.9 304.192 216.9 301.283C216.9 300.313 215.804 300.094 215.084 300.157C215.053 300.063 213.957 297.498 211.954 298.843C211.86 298.906 211.86 299.062 211.985 299.093C212.893 299.312 213.269 300.219 213.3 301.22C211.359 300.626 203.126 298.311 193.358 298.311C188.6 298.311 184.248 298.874 180.773 299.5V306.194H178.05V300.032ZM160.018 368.785C159.298 368.504 158.828 368.034 158.828 367.065V362.905C157.638 362.498 154.383 361.247 147.84 361.247C142.424 361.247 140.733 362.467 140.639 362.905L139.199 370.818C139.199 370.818 141.391 368.816 149.248 369.317C158.703 369.911 168.501 375.51 168.501 369.536V366.033C161.113 366.064 160.018 368.441 160.018 368.785ZM218.215 366.064V369.567C218.215 375.51 228.014 369.943 237.468 369.348C245.326 368.848 247.517 370.85 247.517 370.85L246.077 362.905C246.014 362.467 244.293 361.247 238.877 361.247C232.365 361.247 229.109 362.498 227.888 362.905V367.065C227.888 368.003 227.419 368.472 226.699 368.785C226.73 368.441 225.634 366.064 218.215 366.064ZM193.358 362.467C208.604 362.467 224.069 363.249 226.073 365.563C226.229 365.751 226.292 365.563 226.292 365.407V357.337C226.292 354.991 210.326 353.614 193.327 353.614C176.328 353.614 160.362 354.991 160.362 357.337V365.407C160.362 365.532 160.425 365.72 160.581 365.563C162.679 363.28 178.144 362.467 193.358 362.467ZM179.772 324.43L178.238 324.024L178.112 324.211L176.328 323.429C176.328 323.429 177.643 323.429 177.925 323.429C178.081 323.429 178.081 323.335 178.018 323.273C177.298 322.553 176.641 321.928 176.641 321.928C176.641 321.928 177.361 322.209 178.394 322.585C178.519 322.616 178.551 322.553 178.488 322.46C177.987 321.74 177.298 320.739 177.298 320.739C177.298 320.739 178.738 321.709 179.02 321.897C179.114 321.959 179.177 321.896 179.145 321.803C178.77 320.864 178.331 319.769 178.331 319.769L179.897 321.271C179.959 321.333 180.053 321.302 180.022 321.208C179.865 320.489 179.584 319.175 179.584 319.175L180.742 320.864C180.805 320.958 180.899 320.927 180.899 320.833C180.899 320.489 180.93 318.987 180.93 318.987C180.93 318.987 181.431 320.114 181.65 320.677C181.713 320.802 181.775 320.802 181.838 320.645C181.9 320.458 182.433 319.206 182.433 319.206L182.495 321.146L182.245 321.208L181.932 323.523C184.217 322.991 187.097 319.05 189.289 319.05C191.918 319.05 192.857 322.115 197.678 320.551C198.899 322.366 199.338 323.93 199.807 326.088C201.686 327.84 204.284 327.245 204.284 325.4C204.284 322.897 201.56 322.428 201.56 319.801C201.56 318.643 202.374 316.954 204.597 316.954C205.787 316.954 207.508 317.455 208.51 317.455C209.7 317.455 209.95 316.61 210.076 316.235C210.169 315.985 210.514 316.047 210.482 316.266C210.451 316.516 210.608 316.86 210.608 317.423C210.608 319.081 208.197 319.3 207.915 319.081C207.79 318.987 207.696 319.113 207.79 319.206C208.166 319.488 208.072 320.489 207.634 321.115C207.571 321.177 207.508 321.177 207.508 321.115C207.258 319.926 205.849 318.456 204.628 318.456C204.19 318.456 203.282 318.706 203.282 319.769C203.282 321.24 206.256 322.616 206.256 325.681C206.256 328.872 203.094 329.654 199.901 328.841C199.995 331.875 204.534 333.658 204.628 331.499C204.628 331.343 204.722 331.437 204.754 331.499C205.411 332.438 205.129 333.126 204.253 333.501C205.035 333.845 205.192 335.441 205.411 336.41C205.755 337.849 207.258 337.036 207.352 337.005C207.446 336.942 207.477 337.005 207.415 337.099C206.851 338.569 205.317 338.006 205.317 338.006C204.534 338.569 205.474 339.069 206.194 339.288C206.288 339.319 206.288 339.382 206.225 339.445C205.693 339.632 204.566 340.008 204.002 339.038C203.595 340.039 202.75 340.008 202.437 340.008C201.842 340.008 201.466 340.602 201.592 341.415C201.592 341.478 201.56 341.509 201.498 341.478C200.12 340.571 200.903 339.476 201.466 339.194C201.373 339.132 200.402 338.725 199.995 339.851C199.964 339.945 199.901 339.945 199.87 339.851C199.275 338.225 200.59 337.755 201.529 338.162C201.466 337.943 200.966 337.13 199.713 337.411C199.651 337.443 199.619 337.411 199.651 337.318C199.87 336.817 200.465 336.098 201.623 336.817C202.218 337.192 203.22 336.661 203.313 336.598C201.279 332.563 197.365 335.941 196.458 332.782C196.426 332.719 196.364 332.657 196.301 332.845C196.082 333.501 194.36 333.564 194.047 332.25C194.016 332.156 194.047 332.125 194.141 332.188C194.391 332.438 194.924 332.657 195.644 331.656C196.113 330.968 196.176 330.061 196.176 329.466C196.176 327.026 193.734 322.897 189.915 322.897C187.504 322.897 184.906 323.836 182.965 325.243L184.749 325.65C184.593 327.464 182.84 328.528 181.243 328.059L181.525 325.994C181.243 326.088 180.554 326.338 180.179 326.87C180.147 326.901 180.085 326.901 180.085 326.839C179.772 325.65 180.742 325.056 181.024 324.931C181.055 324.899 181.055 324.899 180.992 324.899C180.116 324.868 179.646 325.494 179.49 325.713C179.459 325.744 179.427 325.744 179.427 325.713C179.521 325.462 179.365 324.868 179.772 324.43ZM185.125 338.444C184.436 339.288 183.841 338.475 182.933 338.475C182.088 338.475 181.932 339.194 181.932 339.476C181.932 339.538 181.9 339.538 181.869 339.507C180.899 338.193 181.994 337.474 182.62 337.38C182.526 337.286 181.587 336.661 180.992 337.537C180.961 337.599 180.899 337.568 180.899 337.505C180.867 335.879 182.151 335.754 183.027 336.473C183.184 335.847 182.777 335.441 182.088 335.409C181.994 335.409 181.994 335.347 182.026 335.316C182.307 335.003 182.589 334.878 182.871 334.878C183.779 334.878 183.904 336.035 184.499 336.035C185.375 336.035 186.659 334.846 186.753 334.721C186.721 334.659 185.876 332.344 186.033 330.968C186.033 330.905 186.001 330.905 185.97 330.936C185.532 331.187 184.467 331.155 184.467 329.842C184.467 329.748 184.499 329.717 184.561 329.81C185.031 330.467 185.814 329.716 186.189 329.279C186.596 328.809 188.85 325.556 191.824 325.556C192.482 325.556 193.327 325.932 194.016 326.401C192.983 327.652 194.016 328.841 194.767 328.684C194.861 328.653 194.861 328.747 194.798 328.778C190.854 330.248 189.101 330.843 189.101 334.158C189.101 335.879 189.695 336.848 190.697 336.598C190.76 336.567 190.791 336.598 190.729 336.661C190.353 337.099 189.946 337.255 189.602 337.255C188.788 337.255 188.631 336.817 188.193 336.817C187.755 336.817 186.283 337.693 186.283 338.412C186.283 338.694 186.471 339.069 186.972 339.382C187.003 339.413 186.972 339.445 186.972 339.445C186.534 339.445 185.375 339.538 185.125 338.444ZM195.487 306.382C194.266 306.319 193.452 306.569 193.515 306.976C194.11 307.602 194.892 307.539 195.487 306.382ZM190.948 309.416C191.824 309.197 192.763 309.291 192.889 309.322C193.014 309.353 193.014 309.572 192.857 309.603C191.042 309.822 190.948 310.667 189.789 310.667C189.038 310.667 188.193 309.885 188.506 308.759C188.537 308.602 188.662 308.602 188.694 308.759C188.819 309.259 189.539 309.791 190.948 309.416ZM167.374 349.642C168.564 351.175 169.722 349.736 171.319 349.736C172.102 349.736 173.041 349.986 173.197 351.55C173.197 351.644 173.26 351.644 173.354 351.55C175.076 349.204 173.103 347.89 171.976 347.703C172.227 347.484 173.886 346.451 174.982 347.984C175.044 348.078 175.17 348.047 175.17 347.921C175.17 344.95 172.947 344.731 171.319 346.013C171.006 344.856 171.883 344.105 173.01 344.105C173.135 344.105 173.197 344.011 173.135 343.949C171.131 341.822 169.66 344.512 169.315 344.919C168.533 345.982 165.684 343.98 164.526 342.792C164.526 342.792 167.03 340.164 167.03 337.755C167.03 337.599 166.999 337.411 166.999 337.318C166.999 337.255 167.03 337.224 167.093 337.255C167.343 337.411 167.688 337.505 168.032 337.505C168.595 337.505 169.691 337.318 169.691 335.284C169.691 335.128 169.629 335.128 169.566 335.222C169.253 335.66 168.94 335.754 168.689 335.754C166.654 335.754 162.428 328.997 157.419 328.997C156.104 328.997 153.631 329.935 152.41 331.281C153.005 331.625 153.13 332.375 153.068 332.907C152.974 333.752 152.285 334.19 151.596 334.377C151.471 334.409 151.471 334.502 151.596 334.565C154.132 335.535 158.703 337.255 159.767 338.162C160.988 339.226 160.769 341.228 160.049 344.011C159.36 346.67 157.889 346.326 157.325 346.232C157.231 346.232 157.231 346.264 157.263 346.326C157.92 347.139 158.703 347.421 159.392 347.421C160.706 347.421 161.207 346.608 161.865 346.608C162.992 346.608 165.402 348.234 165.402 349.485C165.402 350.174 164.87 350.831 164.15 351.268C164.119 351.3 164.119 351.362 164.181 351.362C164.714 351.456 166.936 351.644 167.374 349.642ZM222.566 351.362C222.629 351.362 222.66 351.3 222.598 351.268C221.909 350.799 221.346 350.174 221.346 349.485C221.346 348.234 223.725 346.608 224.883 346.608C225.572 346.608 226.041 347.421 227.356 347.421C228.045 347.421 228.828 347.139 229.485 346.326C229.548 346.264 229.516 346.201 229.422 346.232C228.89 346.326 227.388 346.67 226.699 344.011C225.979 341.228 225.728 339.226 226.981 338.162C228.014 337.255 232.616 335.535 235.151 334.565C235.277 334.502 235.277 334.409 235.151 334.377C234.463 334.19 233.774 333.752 233.68 332.907C233.617 332.375 233.743 331.656 234.337 331.281C233.085 329.935 230.612 328.997 229.297 328.997C224.288 328.997 220.062 335.754 218.027 335.754C217.777 335.754 217.432 335.66 217.151 335.222C217.088 335.128 217.025 335.128 217.025 335.284C217.025 337.318 218.121 337.505 218.685 337.505C218.998 337.505 219.373 337.411 219.624 337.255C219.686 337.224 219.718 337.255 219.718 337.318C219.718 337.411 219.686 337.599 219.686 337.755C219.686 340.164 222.191 342.792 222.191 342.792C221.064 343.98 218.215 345.951 217.401 344.919C217.057 344.481 215.585 341.822 213.582 343.949C213.519 344.043 213.55 344.105 213.707 344.105C214.834 344.105 215.711 344.856 215.397 346.013C213.77 344.731 211.547 344.95 211.547 347.921C211.547 348.047 211.672 348.078 211.735 347.984C212.799 346.451 214.49 347.484 214.709 347.703C213.582 347.859 211.641 349.204 213.331 351.55C213.394 351.644 213.457 351.644 213.488 351.55C213.676 350.017 214.615 349.736 215.366 349.736C216.931 349.736 218.09 351.175 219.311 349.642C219.812 351.644 222.034 351.456 222.566 351.362ZM182.151 312.356C181.994 312.575 181.462 312.356 181.274 312.262C181.243 312.231 181.212 312.262 181.243 312.294C181.368 312.575 181.869 313.42 182.62 313.42C182.965 313.42 183.466 313.232 183.591 312.982C183.591 312.982 186.534 313.951 187.974 314.327C187.41 315.077 187.066 315.985 186.972 316.954C185.814 316.235 181.118 313.732 181.118 313.732L179.678 315.734C179.427 316.047 178.269 315.203 178.519 314.89L179.615 313.357C179.239 312.982 178.363 313.201 178.112 313.295C178.081 313.295 178.05 313.294 178.081 313.232C178.238 312.919 178.77 312.012 180.147 312.419C180.147 311.574 178.895 311.856 178.551 311.949C178.519 311.949 178.488 311.949 178.519 311.918C178.864 311.543 179.897 310.73 181.024 311.418L181.525 310.73L180.523 309.666L181.149 308.79L181.869 309.729L187.285 302.315C187.41 302.128 188.506 301.815 188.882 301.721C188.913 302.128 188.975 303.254 188.85 303.441L183.528 310.917L184.655 311.293L184.029 312.168L182.714 311.543L182.151 312.356ZM201.153 311.136C201.153 311.824 201.56 312.825 202.468 312.513C202.5 312.481 202.562 312.512 202.531 312.544C202.406 313.294 201.028 313.983 200.433 313.107C199.87 314.264 200.026 315.359 201.185 315.985C201.247 316.016 201.247 316.11 201.185 316.172C200.465 316.673 199.369 316.579 198.868 315.578C197.898 316.297 198.023 317.861 198.618 318.393C198.618 318.393 195.925 319.988 193.483 318.862C191.856 318.08 190.541 317.079 188.443 317.267C188.725 314.327 190.196 313.576 192.889 313.138C195.049 312.794 195.299 311.793 195.017 311.042C194.297 310.855 192.951 311.512 192.951 311.512C192.701 311.105 193.045 310.698 193.045 310.698C192.92 310.542 192.857 310.01 192.857 310.01C194.36 310.01 194.642 309.666 194.642 309.666C194.924 308.102 193.327 307.946 192.106 308.79C191.543 308.29 191.636 307.633 191.636 307.633C191.48 307.539 191.355 307.289 191.355 307.164C191.355 306.788 193.139 305.787 193.609 305.662C193.734 305.13 194.36 304.411 196.27 304.599C196.489 304.098 196.113 302.253 195.894 301.783C195.831 301.627 195.925 301.564 196.082 301.658C196.739 302.065 197.397 303.629 197.866 303.66C197.866 303.66 199.995 302.534 200.089 302.597C200.183 302.659 200.496 305.037 200.496 305.037C200.778 305.381 202.437 305.037 203.157 305.349C203.345 305.443 203.345 305.568 203.157 305.6C202.625 305.693 200.903 306.444 200.621 306.913C201.623 308.384 201.153 310.542 201.153 311.136Z" fill="white"></path>
      <path d="M308.72 305.631C310.598 305.099 311.537 304.129 311.537 301.94V278.136L308.469 277.166V276.102C311.537 275.571 314.292 275.383 318.143 275.383C325.468 275.383 328.975 278.23 328.975 283.578C328.975 288.364 326.314 291.524 321.994 292.837L328.849 302.002C330.008 303.566 331.604 304.724 333.357 305.287V306.194C332.45 306.819 331.229 307.257 329.663 307.257C327.566 307.257 326.22 306.444 324.467 303.817L318.049 294.12H315.764V304.348L318.832 305.13V306.194C317.235 306.694 315.451 307.007 313.291 307.007C311.6 307.007 310.129 306.851 308.72 306.507V305.631ZM317.642 291.836C321.43 291.836 324.529 289.365 324.529 284.329C324.529 280.357 321.994 278.073 317.83 278.073C317.204 278.073 316.358 278.167 315.732 278.261V291.836H317.642Z" fill="black"></path>
      <path d="M336.238 305.756C337.552 305.287 338.805 304.317 338.805 303.129V286.738L335.705 285.424V284.392C337.897 283.766 340.12 283.485 341.466 283.485H343.031L342.781 286.112V304.536L345.504 305.256V306.163C343.845 306.757 342.342 306.976 339.869 306.976C338.742 306.976 337.333 306.882 336.238 306.538V305.756ZM338.272 276.259C338.272 274.758 339.337 273.413 341.027 273.413C342.374 273.413 343.563 274.445 343.563 276.04C343.563 277.729 342.405 279.043 340.84 279.043C339.399 279.012 338.272 277.854 338.272 276.259Z" fill="black"></path>
      <path d="M350.92 286.738L347.789 285.424V284.392C350.012 283.766 352.204 283.485 353.612 283.485H355.178L354.896 286.206V307.977C354.896 315.922 352.517 318.393 349.417 318.393C348.353 318.393 347.289 318.018 346.694 317.236V316.454C348.823 316.454 350.92 314.014 350.92 309.072V286.738ZM350.388 276.259C350.388 274.758 351.452 273.413 353.143 273.413C354.489 273.413 355.678 274.445 355.678 276.04C355.678 277.729 354.52 279.043 352.955 279.043C351.484 279.012 350.388 277.854 350.388 276.259Z" fill="black"></path>
      <path d="M360.155 305.756C361.47 305.287 362.785 304.317 362.785 303.128V275.008L359.592 273.694V272.63C361.814 272.005 364.068 271.755 365.415 271.755H367.074L366.792 274.476V293.87L369.453 291.555C372.083 289.334 374.462 285.987 374.462 283.797C375.338 283.516 376.058 283.422 377.029 283.422C377.749 283.422 378.344 283.578 378.97 283.86C378.876 285.956 376.779 289.24 372.364 292.399L370.674 293.619L378.156 302.691C379.502 304.348 380.723 305.005 381.756 305.005V306.038C380.692 306.757 379.565 307.07 378.156 307.07C376.81 307.07 375.62 306.475 374.712 305.224L366.792 294.808V304.599L369.328 305.381V306.288C367.543 306.882 366.135 307.07 363.849 307.07C362.722 307.07 361.314 306.976 360.218 306.632V305.756H360.155Z" fill="black"></path>
      <path d="M384.323 301.314C386.515 303.347 388.581 304.38 391.179 304.38C393.903 304.38 395.312 303.066 395.312 301.377C395.312 299.688 394.341 298.624 391.148 297.248L388.737 296.215C385.92 294.996 384.355 292.962 384.355 290.21C384.355 286.394 387.736 283.078 392.807 283.078C396.689 283.078 398.254 284.235 398.254 286.081C398.254 286.8 398.16 287.426 398.004 288.114C396.439 287.05 394.31 286.268 392.463 286.268C389.363 286.268 387.892 287.613 387.892 289.271C387.892 291.023 388.769 291.993 391.68 293.087L394.31 294.12C397.816 295.465 399.131 297.279 399.131 300.125C399.131 303.848 395.531 307.257 390.115 307.257C385.857 307.257 383.948 305.912 383.948 303.285C383.885 302.628 384.01 301.846 384.323 301.314Z" fill="black"></path>
      <path d="M402.668 301.314C404.86 303.347 406.926 304.38 409.524 304.38C412.248 304.38 413.657 303.066 413.657 301.377C413.657 299.688 412.686 298.624 409.493 297.248L407.083 296.215C404.265 294.996 402.7 292.962 402.7 290.21C402.7 286.394 406.081 283.078 411.152 283.078C415.034 283.078 416.599 284.235 416.599 286.081C416.599 286.8 416.506 287.426 416.349 288.114C414.784 287.05 412.655 286.268 410.808 286.268C407.709 286.268 406.237 287.613 406.237 289.271C406.237 291.023 407.114 291.993 410.025 293.087L412.655 294.12C416.161 295.465 417.476 297.279 417.476 300.125C417.476 303.848 413.876 307.257 408.46 307.257C404.202 307.257 402.293 305.912 402.293 303.285C402.23 302.628 402.355 301.846 402.668 301.314Z" fill="black"></path>
      <path d="M432.127 283.203C436.072 283.203 437.355 284.454 437.355 286.05C437.355 286.957 437.105 287.801 436.76 288.583C434.913 287.113 433.16 286.362 431.125 286.362C427.776 286.362 424.927 289.647 424.927 295.277C424.927 301.064 427.995 303.973 431.783 303.973C433.661 303.973 435.821 303.16 437.324 302.034C437.48 302.315 437.574 302.816 437.574 303.254C437.574 305.537 435.101 307.32 430.499 307.32C425.209 307.32 420.732 302.91 420.732 296.153C420.7 288.177 425.709 283.203 432.127 283.203Z" fill="black"></path>
      <path d="M440.642 305.756C441.957 305.287 443.209 304.317 443.209 303.128V275.008L440.047 273.694V272.63C442.239 272.005 444.211 271.755 445.87 271.755H447.436L447.185 274.476V286.081C448.938 284.392 451.161 283.422 454.229 283.422C458.361 283.422 461.022 285.987 461.022 290.992V304.567L463.558 305.287V306.194C462.212 306.726 460.49 307.007 458.424 307.007C457.453 307.007 456.232 306.913 455.325 306.569V305.756C456.483 305.224 457.078 304.317 457.078 302.565V293.307C457.078 288.552 455.137 286.769 452.131 286.769C450.253 286.769 448.343 287.457 447.216 288.27V304.567L449.94 305.287V306.194C448.281 306.788 446.778 307.007 444.305 307.007C443.178 307.007 441.769 306.913 440.674 306.569V305.756H440.642Z" fill="black"></path>
      <path d="M477.802 283.109C483.782 283.109 488.383 287.582 488.383 294.308C488.383 302.315 482.811 307.351 477.019 307.351C471.134 307.351 466.376 303.222 466.376 296.153C466.407 288.177 471.823 283.109 477.802 283.109ZM477.333 304.536C480.588 304.536 483.969 301.377 483.969 294.746C483.969 289.084 480.901 285.925 477.458 285.925C474.108 285.925 470.821 289.272 470.821 295.684C470.821 301.533 473.889 304.536 477.333 304.536Z" fill="black"></path>
      <path d="M503.629 283.109C509.609 283.109 514.211 287.582 514.211 294.308C514.211 302.315 508.638 307.351 502.847 307.351C496.961 307.351 492.203 303.222 492.203 296.153C492.203 288.177 497.65 283.109 503.629 283.109ZM503.128 304.536C506.384 304.536 509.765 301.377 509.765 294.746C509.765 289.084 506.697 285.925 503.254 285.925C499.904 285.925 496.617 289.272 496.617 295.684C496.617 301.533 499.685 304.536 503.128 304.536Z" fill="black"></path>
      <path d="M517.717 305.756C518.969 305.287 520.284 304.317 520.284 303.129V286.738L517.153 285.424V284.361C519.376 283.735 521.568 283.485 522.976 283.485H524.135V286.112C525.794 284.454 528.486 283.391 531.304 283.391C535.342 283.391 538.097 285.956 538.097 290.961V304.536L540.633 305.256V306.163C539.318 306.694 537.627 306.976 535.53 306.976C534.497 306.976 533.339 306.882 532.368 306.538V305.756C533.589 305.224 534.121 304.317 534.121 302.566V293.307C534.121 288.552 532.118 286.769 529.269 286.769C527.297 286.769 525.324 287.457 524.26 288.271V304.567L526.983 305.287V306.194C525.324 306.788 523.79 307.007 521.348 307.007C520.19 307.007 518.813 306.913 517.717 306.569V305.756Z" fill="black"></path>
      <path d="M544.421 305.756C545.673 305.287 546.988 304.317 546.988 303.129V286.738L543.826 285.424V284.361C546.049 283.735 548.24 283.485 549.649 283.485H550.807V286.112C552.498 284.454 555.065 283.391 557.945 283.391C560.23 283.391 562.453 284.611 563.423 286.362C564.926 284.861 568.182 283.391 570.905 283.391C574.975 283.391 577.636 285.862 577.636 291.117V304.536L580.172 305.256V306.163C578.826 306.694 577.104 306.976 575.038 306.976C574.067 306.976 572.846 306.882 571.938 306.538V305.756C573.159 305.224 573.692 304.317 573.692 302.566V293.119C573.692 288.708 571.751 286.769 568.745 286.769C566.992 286.769 565.333 287.207 564.081 287.895C564.269 288.927 564.362 290.272 564.362 291.524V304.567L566.898 305.287V306.194C565.552 306.726 563.893 307.007 561.795 307.007C560.762 307.007 559.604 306.913 558.634 306.569V305.756C559.854 305.224 560.387 304.317 560.387 302.566V293.651C560.387 288.271 558.79 286.769 555.785 286.769C553.844 286.769 551.997 287.457 550.964 288.271V304.567L553.687 305.287V306.194C551.997 306.788 550.494 307.007 548.052 307.007C546.894 307.007 545.516 306.913 544.421 306.569V305.756Z" fill="black"></path>
      <path d="M595.887 293.995V292.681C595.887 287.457 594.635 286.331 591.567 286.331C588.906 286.331 586.339 287.457 584.273 289.49C584.179 289.021 584.116 288.583 584.116 288.02C584.116 284.924 586.402 283.109 592.068 283.109C596.983 283.109 599.895 285.581 599.895 289.616C599.895 290.679 599.738 293.119 599.707 294.527L599.55 302.378C599.894 303.254 600.615 304.161 601.491 304.849C600.771 305.725 599.456 306.694 598.204 307.32C597.296 306.726 596.545 305.975 595.981 304.943C594.635 306.257 592.005 307.258 589.438 307.258C585.807 307.258 583.271 304.974 583.271 301.877C583.271 297.655 587.936 293.995 595.887 293.995ZM591.223 304.38C592.725 304.38 594.666 303.785 595.887 303.066V296.278C590.409 296.278 587.435 298.562 587.435 301.189C587.435 303.129 588.75 304.38 591.223 304.38Z" fill="black"></path>
      <path d="M617.52 293.995V292.681C617.52 287.457 616.267 286.331 613.199 286.331C610.538 286.331 607.971 287.457 605.905 289.49C605.811 289.021 605.749 288.583 605.749 288.02C605.749 284.924 608.034 283.109 613.7 283.109C618.615 283.109 621.527 285.581 621.527 289.616C621.527 290.679 621.37 293.119 621.339 294.527L621.182 302.378C621.527 303.254 622.247 304.161 623.123 304.849C622.403 305.725 621.088 306.694 619.836 307.32C618.928 306.726 618.177 305.975 617.614 304.943C616.267 306.257 613.638 307.258 611.071 307.258C607.439 307.258 604.903 304.974 604.903 301.877C604.903 297.655 609.537 293.995 617.52 293.995ZM612.855 304.38C614.358 304.38 616.299 303.785 617.52 303.066V296.278C612.041 296.278 609.067 298.562 609.067 301.189C609.067 303.129 610.382 304.38 612.855 304.38Z" fill="black"></path>
      <path d="M626.974 305.756C628.289 305.287 629.604 304.317 629.604 303.128V275.008L626.41 273.694V272.63C628.633 272.005 630.887 271.755 632.233 271.755H633.893L633.611 274.476V293.87L636.272 291.555C638.901 289.334 641.281 285.987 641.281 283.797C642.157 283.516 642.877 283.422 643.848 283.422C644.568 283.422 645.163 283.578 645.789 283.86C645.695 285.956 643.597 289.24 639.183 292.399L637.493 293.619L644.975 302.691C646.321 304.348 647.542 305.005 648.575 305.005V306.038C647.511 306.757 646.383 307.07 644.975 307.07C643.629 307.07 642.439 306.475 641.531 305.224L633.611 294.808V304.599L636.147 305.381V306.288C634.362 306.882 632.953 307.07 630.668 307.07C629.541 307.07 628.132 306.976 627.037 306.632V305.756H626.974Z" fill="black"></path>
      <path d="M660.847 283.109C666.826 283.109 671.428 287.582 671.428 294.308C671.428 302.315 665.856 307.351 660.064 307.351C654.179 307.351 649.42 303.222 649.42 296.153C649.451 288.177 654.899 283.109 660.847 283.109ZM660.377 304.536C663.633 304.536 667.014 301.377 667.014 294.746C667.014 289.084 663.946 285.925 660.502 285.925C657.153 285.925 653.866 289.272 653.866 295.684C653.866 301.533 656.934 304.536 660.377 304.536Z" fill="black"></path>
      <path d="M674.966 305.756C676.218 305.287 677.533 304.317 677.533 303.128V286.738L674.371 285.424V284.36C676.594 283.735 678.785 283.485 680.194 283.485H681.352V286.863H681.383L682.729 285.361C684.044 283.954 685.359 283.234 686.987 283.234C688.678 283.234 689.523 283.954 689.523 285.33C689.523 286.237 689.241 287.332 688.74 288.239C687.832 287.52 686.737 287.113 685.735 287.113C684.232 287.113 682.823 287.801 681.477 289.115V304.536L684.827 305.255V306.163C683.168 306.757 681.571 306.976 678.816 306.976C677.408 306.976 676.061 306.882 674.934 306.538V305.756H674.966Z" fill="black"></path>
      <path d="M695.815 299.5V299.437C693.624 298.561 691.464 296.028 691.464 292.681C691.464 287.238 695.815 283.078 701.106 283.078C703.11 283.078 705.52 283.891 706.334 284.673C707.211 283.86 709.058 283.109 710.592 283.109C711.406 283.109 712.188 283.266 712.689 283.391L712.345 286.581C710.779 286.237 709.058 286.049 707.148 286.049V286.112C708.745 287.332 709.903 289.396 709.903 291.398C709.903 297.029 705.301 300.845 700.042 300.845C698.977 300.845 697.85 300.595 697.036 300.251C696.316 300.689 695.471 301.721 695.471 302.565C695.471 304.035 696.692 304.786 698.57 304.786L705.364 304.724C709.433 304.661 711.719 306.569 711.719 310.166C711.719 314.765 706.616 318.643 699.885 318.643C693.78 318.643 690.619 316.172 690.619 312.982C690.619 310.417 692.622 308.321 695.22 307.601V307.633C693.436 307.007 692.34 305.693 692.34 303.848C692.434 302.002 693.968 300.125 695.815 299.5ZM700.574 315.922C705.176 315.922 708.244 313.638 708.244 311.324C708.244 309.447 706.991 308.352 704.644 308.352H696.817C695.408 308.978 694.344 310.573 694.344 312.231C694.375 314.233 696.504 315.922 700.574 315.922ZM705.677 291.586C705.677 287.52 703.391 285.58 700.824 285.58C698.069 285.58 695.721 288.208 695.721 292.431C695.721 296.497 698.007 298.499 700.386 298.499C703.36 298.468 705.677 296.341 705.677 291.586Z" fill="black"></path>
      <path d="M727.246 293.995V292.681C727.246 287.457 725.994 286.331 722.926 286.331C720.265 286.331 717.698 287.457 715.632 289.49C715.538 289.021 715.475 288.583 715.475 288.02C715.475 284.924 717.761 283.109 723.427 283.109C728.342 283.109 731.253 285.581 731.253 289.616C731.253 290.679 731.097 293.119 731.065 294.527L730.909 302.378C731.253 303.254 731.973 304.161 732.85 304.849C732.13 305.725 730.815 306.694 729.563 307.32C728.655 306.726 727.904 305.975 727.34 304.943C725.994 306.257 723.364 307.258 720.797 307.258C717.166 307.258 714.63 304.974 714.63 301.877C714.63 297.655 719.295 293.995 727.246 293.995ZM722.582 304.38C724.084 304.38 726.025 303.785 727.246 303.066V296.278C721.768 296.278 718.794 298.562 718.794 301.189C718.794 303.129 720.108 304.38 722.582 304.38Z" fill="black"></path>
      <path d="M736.732 305.756C737.984 305.287 739.299 304.317 739.299 303.129V286.738L736.137 285.424V284.361C738.36 283.735 740.551 283.485 741.96 283.485H743.118V286.112C744.777 284.454 747.47 283.391 750.287 283.391C754.326 283.391 757.081 285.956 757.081 290.961V304.536L759.616 305.256V306.163C758.302 306.694 756.611 306.976 754.514 306.976C753.48 306.976 752.322 306.882 751.352 306.538V305.756C752.573 305.224 753.105 304.317 753.105 302.566V293.307C753.105 288.552 751.101 286.769 748.252 286.769C746.28 286.769 744.308 287.457 743.243 288.271V304.567L745.967 305.287V306.194C744.308 306.788 742.774 307.007 740.332 307.007C739.174 307.007 737.796 306.913 736.701 306.569V305.756H736.732Z" fill="black"></path>
      <path d="M763.404 305.756C764.719 305.287 765.971 304.317 765.971 303.129V286.738L762.872 285.424V284.392C765.064 283.766 767.286 283.485 768.632 283.485H770.198L769.947 286.112V304.536L772.671 305.256V306.163C771.012 306.757 769.509 306.976 767.036 306.976C765.909 306.976 764.5 306.882 763.404 306.538V305.756ZM765.439 276.259C765.439 274.758 766.504 273.413 768.194 273.413C769.54 273.413 770.73 274.445 770.73 276.04C770.73 277.729 769.572 279.043 768.006 279.043C766.566 279.012 765.439 277.854 765.439 276.259Z" fill="black"></path>
      <path d="M776.459 301.314C778.65 303.347 780.716 304.38 783.315 304.38C786.038 304.38 787.447 303.066 787.447 301.377C787.447 299.688 786.477 298.624 783.283 297.248L780.873 296.215C778.055 294.996 776.49 292.962 776.49 290.21C776.49 286.394 779.871 283.078 784.943 283.078C788.825 283.078 790.39 284.235 790.39 286.081C790.39 286.8 790.296 287.426 790.139 288.114C788.574 287.05 786.445 286.268 784.598 286.268C781.499 286.268 780.028 287.613 780.028 289.271C780.028 291.023 780.904 291.993 783.816 293.087L786.445 294.12C789.952 295.465 791.266 297.279 791.266 300.125C791.266 303.848 787.666 307.257 782.25 307.257C777.993 307.257 776.083 305.912 776.083 303.285C776.021 302.628 776.177 301.846 776.459 301.314Z" fill="black"></path>
      <path d="M807.107 293.995V292.681C807.107 287.457 805.855 286.331 802.787 286.331C800.126 286.331 797.559 287.457 795.493 289.49C795.399 289.021 795.336 288.583 795.336 288.02C795.336 284.924 797.621 283.109 803.288 283.109C808.203 283.109 811.114 285.581 811.114 289.616C811.114 290.679 810.958 293.119 810.926 294.527L810.77 302.378C811.114 303.254 811.834 304.161 812.711 304.849C811.991 305.725 810.676 306.694 809.424 307.32C808.516 306.726 807.765 305.975 807.201 304.943C805.855 306.257 803.225 307.258 800.658 307.258C797.027 307.258 794.491 304.974 794.491 301.877C794.491 297.655 799.155 293.995 807.107 293.995ZM802.443 304.38C803.945 304.38 805.886 303.785 807.107 303.066V296.278C801.629 296.278 798.655 298.562 798.655 301.189C798.655 303.129 799.969 304.38 802.443 304.38Z" fill="black"></path>
      <path d="M818.377 293.338L818.534 286.894H815.873V285.299L821.101 280.106L822.697 279.919L822.51 284.298H828.927L828.583 286.925H822.384L822.29 293.025C822.228 295.058 822.228 296.904 822.228 298.687C822.228 302.628 823.386 303.973 825.202 303.973C826.611 303.973 827.832 303.473 828.802 302.722L829.303 302.909C829.115 305.756 827.425 307.226 824.075 307.226C820.193 307.226 818.315 305.193 818.315 300.47C818.221 298.124 818.315 295.559 818.377 293.338Z" fill="black"></path>
      <path d="M832.246 305.756C833.56 305.287 834.813 304.317 834.813 303.129V286.738L831.713 285.424V284.392C833.905 283.766 836.128 283.485 837.505 283.485H839.07L838.82 286.112V304.536L841.543 305.256V306.163C839.884 306.757 838.382 306.976 835.908 306.976C834.781 306.976 833.373 306.882 832.277 306.538V305.756H832.246ZM834.28 276.259C834.28 274.758 835.345 273.413 837.035 273.413C838.382 273.413 839.571 274.445 839.571 276.04C839.571 277.729 838.413 279.043 836.848 279.043C835.408 279.012 834.28 277.854 834.28 276.259Z" fill="black"></path>
      <path d="M854.629 283.141C859.857 283.141 863.019 286.644 863.019 292.212C863.019 293.119 863.019 294.089 862.957 295.309H848.65C848.65 300.751 851.812 303.879 855.819 303.879C858.198 303.879 860.828 303.066 862.675 301.784C862.769 302.034 862.863 302.566 862.863 303.035C862.863 305.224 859.67 307.258 854.504 307.258C848.963 307.258 844.455 302.941 844.455 296.153C844.486 287.739 849.558 283.141 854.629 283.141ZM859.137 292.806C859.137 288.052 857.102 285.768 854.222 285.768C851.561 285.768 848.744 288.959 848.744 292.806H859.137Z" fill="black"></path>
      <path d="M306.435 360.684C307.249 360.308 307.875 359.777 308.125 358.838L314.198 332.907L311.569 332.344V331.187C312.821 330.843 315.106 330.592 316.578 330.592H318.174L322.432 353.708H322.494L330.509 330.592H331.73C332.951 330.592 334.985 330.686 336.394 330.968V332.125L334.109 332.719L335.236 359.589L337.897 360.308V361.278C336.425 361.778 335.33 361.997 333.921 361.997C331.917 361.997 330.759 361.841 329.663 361.497V360.684C330.571 360.246 331.166 359.651 331.166 358.15L330.884 336.661H330.822L321.994 362.123L320.522 362.029L315.764 336.661H315.701L311.036 359.495L313.791 360.277V361.247C312.445 361.778 311.256 361.966 309.753 361.966C308.595 361.966 307.374 361.778 306.403 361.466V360.684H306.435Z" fill="#1D1D1B"></path>
      <path d="M341.904 353.427L343.469 343.573L343.72 340.696L340.808 339.789V338.881C342.374 338.287 343.908 338.068 345.661 338.068C346.537 338.068 347.226 338.131 347.852 338.35L345.661 352.613C345.473 354.052 345.285 356.555 345.285 357.806C345.285 359.401 345.88 360.121 347.226 360.559V361.372C346.193 361.81 345.035 362.06 343.594 362.06C342.029 362.06 341.278 361.247 341.278 359.839C341.247 358.463 341.685 355.366 341.904 353.427ZM344.252 331.03C344.252 329.435 345.504 328.027 346.975 328.027C348.228 328.027 349.198 328.997 349.198 330.342C349.198 332 347.883 333.345 346.475 333.345C345.16 333.345 344.252 332.469 344.252 331.03Z" fill="#1D1D1B"></path>
      <path d="M354.144 340.727L351.17 339.82V338.913C352.736 338.318 354.176 338.099 355.992 338.099C356.618 338.099 357.306 338.193 357.995 338.444L356.43 345.857H356.461C358.684 340.915 361.908 338.006 365.195 338.006C367.324 338.006 369.015 339.507 369.015 342.479C369.015 344.043 368.576 346.514 368.295 348.578L367.418 353.802C367.262 354.928 367.042 356.805 367.042 357.837C367.042 359.432 367.825 360.058 369.328 360.371V361.184C368.201 361.778 366.949 362.091 365.446 362.091C363.943 362.091 363.067 361.278 363.067 359.87C363.067 358.65 363.411 356.273 363.661 354.74L364.569 349.173C364.82 347.671 365.07 345.575 365.07 344.262C365.07 342.072 364.1 341.353 362.941 341.353C360.218 341.353 356.336 346.576 356.148 353.489L355.866 361.685H351.734L354.144 340.727Z" fill="#1D1D1B"></path>
      <path d="M374.18 353.427L375.745 343.573L375.996 340.696L373.084 339.789V338.881C374.65 338.287 376.184 338.068 377.937 338.068C378.813 338.068 379.502 338.131 380.128 338.35L377.937 352.613C377.749 354.052 377.561 356.555 377.561 357.806C377.561 359.401 378.156 360.121 379.502 360.559V361.372C378.469 361.81 377.311 362.06 375.871 362.06C374.305 362.06 373.554 361.247 373.554 359.839C373.491 358.463 373.93 355.366 374.18 353.427ZM376.497 331.03C376.497 329.435 377.749 328.027 379.22 328.027C380.473 328.027 381.443 328.997 381.443 330.342C381.443 332 380.128 333.345 378.719 333.345C377.436 333.345 376.497 332.469 376.497 331.03Z" fill="#1D1D1B"></path>
      <path d="M382.914 357.462C384.261 358.776 385.888 359.495 387.673 359.495C389.958 359.495 391.805 358.181 391.805 356.148C391.805 354.553 391.179 353.489 388.8 351.362L387.109 349.798C384.855 347.765 384.229 346.451 384.229 344.324C384.229 341.134 387.297 337.912 391.743 337.912C395.28 337.912 397.033 338.975 397.033 340.539C397.033 341.415 396.689 342.416 396.157 343.073C394.748 341.634 392.713 340.696 390.866 340.696C388.737 340.696 387.61 341.853 387.61 343.417C387.61 344.825 388.205 345.638 390.616 347.828L392.463 349.485C394.779 351.581 395.562 352.989 395.562 355.116C395.562 358.932 391.68 362.279 386.577 362.279C383.509 362.279 382.163 361.309 382.163 359.526C382.194 358.619 382.476 358.025 382.914 357.462Z" fill="#1D1D1B"></path>
      <path d="M401.948 344.449L402.574 341.353C401.51 341.353 400.884 341.29 399.851 341.196V340.571C401.416 338.381 403.827 336.254 406.394 334.752H407.114L406.3 338.725H407.709C409.055 338.725 410.15 338.631 411.434 338.381C411.434 340.477 410.276 341.384 407.208 341.384H405.862L405.048 346.42C404.672 348.735 404.077 352.77 404.077 354.709C404.077 357.9 405.674 359.307 407.803 359.307C408.585 359.307 409.055 359.213 409.806 358.963V359.839C409.368 360.996 407.615 362.154 405.329 362.154C402.136 362.154 400.414 360.027 400.414 356.179C400.446 353.239 401.197 348.203 401.948 344.449Z" fill="#1D1D1B"></path>
      <path d="M422.422 337.849C425.772 337.849 427.619 339.538 427.619 342.854C427.619 348.578 421.796 352.082 416.005 352.082C416.005 357.962 417.57 359.37 420.356 359.37C422.109 359.37 424.614 358.338 425.647 356.93C425.835 357.118 426.116 357.556 426.116 358.088C426.116 360.402 423.017 362.342 419.073 362.342C415.003 362.342 412.185 359.683 412.185 353.896C412.217 343.011 417.758 337.849 422.422 337.849ZM423.737 343.73C423.737 341.447 422.829 340.571 421.421 340.571C419.292 340.571 416.224 344.262 416.224 349.83C420.638 349.83 423.737 347.452 423.737 343.73Z" fill="#1D1D1B"></path>
      <path d="M432.972 340.727L429.998 339.82V338.913C431.564 338.319 433.004 338.1 434.694 338.1C435.32 338.1 436.103 338.193 436.729 338.444L435.258 345.482H435.32L437.887 341.228C439.14 339.132 440.454 338.162 441.957 338.162C443.021 338.162 443.554 338.85 443.554 339.945C443.554 340.727 443.366 341.697 443.021 342.479C442.552 342.322 442.051 342.291 441.519 342.291C438.451 342.291 435.414 345.638 434.976 354.615L434.6 361.685H430.562L432.972 340.727Z" fill="#1D1D1B"></path>
      <path d="M446.559 353.427L448.124 343.573L448.375 340.696L445.463 339.789V338.881C447.029 338.287 448.563 338.068 450.316 338.068C451.192 338.068 451.881 338.131 452.507 338.35L450.316 352.613C450.128 354.052 449.94 356.555 449.94 357.806C449.94 359.401 450.535 360.121 451.881 360.559V361.372C450.848 361.81 449.69 362.06 448.25 362.06C446.684 362.06 445.933 361.247 445.933 359.839C445.902 358.463 446.34 355.366 446.559 353.427ZM448.907 331.03C448.907 329.435 450.159 328.027 451.631 328.027C452.883 328.027 453.853 328.997 453.853 330.342C453.853 332 452.538 333.345 451.13 333.345C449.815 333.345 448.907 332.469 448.907 331.03Z" fill="#1D1D1B"></path>
      <path d="M465.906 337.849C469.256 337.849 471.103 339.538 471.103 342.854C471.103 348.578 465.28 352.082 459.488 352.082C459.488 357.962 461.054 359.37 463.84 359.37C465.593 359.37 468.097 358.338 469.13 356.93C469.318 357.118 469.6 357.556 469.6 358.088C469.6 360.402 466.501 362.342 462.556 362.342C458.486 362.342 455.669 359.683 455.669 353.896C455.7 343.011 461.241 337.849 465.906 337.849ZM467.221 343.73C467.221 341.447 466.313 340.571 464.904 340.571C462.775 340.571 459.707 344.262 459.707 349.83C464.122 349.83 467.221 347.452 467.221 343.73Z" fill="#1D1D1B"></path>
      <path d="M481.997 340.633L479.9 339.82V338.788C481.402 338.256 482.529 338.068 483.875 338.068C484.564 338.068 485.222 338.162 485.879 338.35L486.943 358.181H486.975C490.512 353.802 493.079 347.171 493.079 342.166C493.079 340.852 492.453 340.07 491.295 339.507V338.725C492.109 338.287 493.079 338.006 494.3 338.006C495.866 338.006 496.93 338.819 496.93 340.915C496.93 345.919 492.234 356.148 487.507 360.652C486.599 361.466 485.816 361.997 484.94 362.435H483.969L481.997 340.633Z" fill="#1D1D1B"></path>
      <path d="M498.558 353.771C498.558 343.792 504.287 338.006 510.892 338.006C512.458 338.006 514.68 338.35 516.277 338.788L514.586 347.264C513.992 349.798 513.522 354.303 513.459 356.367C513.459 359.464 514.085 360.058 515.776 360.308V361.34C514.524 361.778 512.958 362.06 511.456 362.06C510.673 362.06 510.047 361.904 509.421 361.716L510.548 354.49H510.485C508.576 359.307 505.539 362.31 502.972 362.31C500.687 362.31 498.558 359.339 498.558 353.771ZM510.736 349.047L512.082 341.008C511.393 340.821 510.297 340.727 509.546 340.727C505.602 340.727 502.252 344.856 502.252 353.083C502.252 357.212 503.504 358.963 504.662 358.963C506.823 358.963 509.609 355.71 510.736 349.047Z" fill="#1D1D1B"></path>
      <path d="M522.413 340.727L519.439 339.82V338.913C521.004 338.318 522.444 338.099 524.26 338.099C524.886 338.099 525.575 338.193 526.232 338.444L524.667 345.857H524.729C526.952 340.915 530.177 338.006 533.464 338.006C535.593 338.006 537.283 339.507 537.283 342.479C537.283 344.043 536.845 346.514 536.563 348.578L535.686 353.802C535.53 354.928 535.311 356.805 535.311 357.837C535.311 359.432 536.093 360.058 537.596 360.371V361.184C536.469 361.778 535.217 362.091 533.714 362.091C532.212 362.091 531.335 361.278 531.335 359.87C531.335 358.65 531.679 356.273 531.93 354.74L532.838 349.173C533.088 347.671 533.307 345.575 533.307 344.262C533.307 342.072 532.337 341.353 531.178 341.353C528.455 341.353 524.573 346.576 524.385 353.489L524.103 361.685H519.971L522.413 340.727Z" fill="#1D1D1B"></path>
      <path d="M548.459 354.928H550.056L550.212 355.992C550.651 358.744 551.903 359.589 555.127 359.589C558.414 359.589 561.044 357.649 561.044 354.584C561.044 352.551 560.23 351.049 556.912 347.89L553.719 344.856C551.496 342.729 550.744 341.134 550.744 338.756C550.744 334.252 554.783 330.373 560.261 330.373C563.016 330.373 564.957 330.749 566.523 331.531L565.928 337.599H564.519L564.425 336.723C564.143 334.189 562.735 333.032 559.823 333.032C556.442 333.032 554.47 335.065 554.47 337.787C554.47 339.538 555.065 340.539 557.381 342.635L560.574 345.513C564.018 348.578 565.083 350.518 565.083 353.114C565.083 358.463 559.98 362.279 554.564 362.279C552.028 362.279 549.617 361.904 547.864 361.215L548.459 354.928Z" fill="#1D1D1B"></path>
      <path d="M579.295 337.818C583.24 337.818 586.026 340.383 586.026 345.92C586.026 356.211 580.391 362.248 575.601 362.248C571.813 362.248 568.651 359.339 568.651 353.615C568.651 343.386 573.942 337.818 579.295 337.818ZM582.05 346.889C582.05 342.573 580.454 340.633 578.325 340.633C575.695 340.633 572.502 345.106 572.502 351.925C572.502 357.462 574.349 359.526 576.478 359.526C578.794 359.526 582.05 355.523 582.05 346.889Z" fill="#1D1D1B"></path>
      <path d="M589.376 353.771C589.376 343.042 594.416 337.881 599.519 337.881C602.43 337.881 603.745 338.913 603.745 340.195C603.745 341.447 603.369 342.573 602.618 343.605C601.554 341.822 600.145 340.79 598.454 340.79C596.169 340.79 593.101 344.575 593.101 353.051C593.101 357.556 594.886 359.464 596.639 359.464C598.392 359.464 600.27 358.213 601.585 356.555C601.835 356.805 602.023 357.274 602.023 357.869C602.023 360.277 599.801 362.467 595.48 362.467C592.005 362.435 589.376 359.62 589.376 353.771Z" fill="#1D1D1B"></path>
      <path d="M607.157 353.427L608.723 343.573L608.973 340.696L606.062 339.789V338.881C607.627 338.287 609.161 338.068 610.914 338.068C611.791 338.068 612.479 338.131 613.105 338.35L610.914 352.613C610.726 354.052 610.538 356.555 610.538 357.806C610.538 359.401 611.133 360.121 612.479 360.559V361.372C611.446 361.81 610.288 362.06 608.848 362.06C607.283 362.06 606.531 361.247 606.531 359.839C606.5 358.463 606.938 355.366 607.157 353.427ZM609.505 331.03C609.505 329.435 610.758 328.027 612.229 328.027C613.481 328.027 614.452 328.997 614.452 330.342C614.452 332 613.137 333.345 611.728 333.345C610.413 333.345 609.505 332.469 609.505 331.03Z" fill="#1D1D1B"></path>
      <path d="M616.142 353.771C616.142 343.792 621.871 338.006 628.477 338.006C630.042 338.006 632.265 338.35 633.861 338.788L632.171 347.264C631.576 349.798 631.106 354.303 631.044 356.367C631.044 359.464 631.67 360.058 633.36 360.308V361.34C632.108 361.778 630.543 362.06 629.04 362.06C628.257 362.06 627.631 361.904 627.005 361.716L628.132 354.49H628.101C626.223 359.307 623.155 362.31 620.588 362.31C618.271 362.31 616.142 359.339 616.142 353.771ZM628.32 349.047L629.666 341.008C628.977 340.821 627.882 340.727 627.13 340.727C623.186 340.727 619.836 344.856 619.836 353.083C619.836 357.212 621.088 358.963 622.278 358.963C624.376 358.963 627.193 355.71 628.32 349.047Z" fill="#1D1D1B"></path>
      <path d="M637.962 353.427L641.343 329.372L638.275 328.465V327.558C639.841 327.026 641.281 326.776 643.128 326.776C643.942 326.776 644.787 326.87 645.35 327.058L641.719 352.457C641.469 354.021 641.343 356.336 641.343 357.806C641.343 359.401 642.126 360.121 643.535 360.559V361.372C642.502 361.81 641.249 362.06 639.809 362.06C638.213 362.06 637.367 361.247 637.367 359.777C637.367 358.431 637.712 355.272 637.962 353.427Z" fill="#1D1D1B"></path>
      <path d="M657.215 337.849C660.565 337.849 662.412 339.538 662.412 342.854C662.412 348.578 656.589 352.082 650.798 352.082C650.798 357.962 652.363 359.37 655.18 359.37C656.934 359.37 659.438 358.338 660.471 356.93C660.659 357.118 660.941 357.556 660.941 358.088C660.941 360.402 657.841 362.342 653.897 362.342C649.827 362.342 647.01 359.683 647.01 353.896C647.01 343.011 652.551 337.849 657.215 337.849ZM658.53 343.73C658.53 341.447 657.622 340.571 656.214 340.571C654.085 340.571 651.017 344.262 651.017 349.83C655.431 349.83 658.53 347.452 658.53 343.73Z" fill="#1D1D1B"></path>
      <path d="M670.52 360.59L686.58 333.345H679.442C677.345 333.345 676.187 334.221 674.934 336.692L674.59 337.38H673.087L674.12 330.78H691.652V331.812L675.686 359.057H683.825C686.142 359.057 687.331 358.15 688.239 355.898L688.615 354.991H690.274L689.147 361.622H670.52V360.59Z" fill="#1D1D1B"></path>
      <path d="M693.123 353.771C693.123 343.792 698.852 338.006 705.457 338.006C707.023 338.006 709.245 338.35 710.842 338.788L709.151 347.264C708.557 349.798 708.087 354.303 708.024 356.367C708.024 359.464 708.651 360.058 710.341 360.308V361.34C709.089 361.778 707.524 362.06 706.021 362.06C705.238 362.06 704.612 361.904 703.986 361.716L705.113 354.49H705.082C703.203 359.307 700.135 362.31 697.568 362.31C695.283 362.31 693.123 359.339 693.123 353.771ZM705.301 349.047L706.647 341.008C705.958 340.821 704.863 340.727 704.111 340.727C700.167 340.727 696.817 344.856 696.817 353.083C696.817 357.212 698.069 358.963 699.259 358.963C701.388 358.963 704.205 355.71 705.301 349.047Z" fill="#1D1D1B"></path>
      <path d="M715.788 348.954L717.792 329.372L714.787 328.465V327.558C716.289 327.026 717.761 326.776 719.733 326.776C720.515 326.776 721.298 326.87 721.924 327.058L719.107 348.359H719.169L721.893 346.232C723.928 344.637 726.464 340.758 727.184 337.755C729.563 337.755 730.439 338.381 730.439 339.351C730.439 341.196 727.371 344.793 723.803 347.202L721.705 348.641L727.81 357.994C728.624 359.213 729.563 359.995 730.972 360.621V361.434C730.064 361.966 729.281 362.154 727.966 362.154C726.495 362.154 725.211 361.434 723.928 359.088L718.919 349.861H718.856L718.042 361.591H713.879L715.788 348.954Z" fill="#1D1D1B"></path>
      <path d="M742.555 337.849C745.904 337.849 747.751 339.538 747.751 342.854C747.751 348.578 741.929 352.082 736.137 352.082C736.137 357.962 737.702 359.37 740.52 359.37C742.273 359.37 744.777 358.338 745.81 356.93C745.998 357.118 746.28 357.556 746.28 358.088C746.28 360.402 743.181 362.342 739.236 362.342C735.167 362.342 732.349 359.683 732.349 353.896C732.349 343.011 737.89 337.849 742.555 337.849ZM743.87 343.73C743.87 341.447 742.962 340.571 741.553 340.571C739.424 340.571 736.356 344.262 736.356 349.83C740.739 349.83 743.87 347.452 743.87 343.73Z" fill="#1D1D1B"></path>
      <path d="M753.136 340.727L750.162 339.82V338.913C751.727 338.318 753.167 338.099 754.983 338.099C755.609 338.099 756.298 338.193 756.955 338.444L755.39 345.857H755.453C757.675 340.915 760.9 338.006 764.187 338.006C766.316 338.006 768.006 339.507 768.006 342.479C768.006 344.043 767.568 346.514 767.286 348.578L766.41 353.802C766.253 354.928 766.034 356.805 766.034 357.837C766.034 359.432 766.817 360.058 768.319 360.371V361.184C767.192 361.778 765.94 362.091 764.437 362.091C762.935 362.091 762.058 361.278 762.058 359.87C762.058 358.65 762.403 356.273 762.653 354.74L763.561 349.173C763.811 347.671 764.031 345.575 764.031 344.262C764.031 342.072 763.06 341.353 761.902 341.353C759.178 341.353 755.296 346.576 755.108 353.489L754.827 361.685H750.694L753.136 340.727Z" fill="#1D1D1B"></path>
      <path d="M790.046 337.849C793.395 337.849 795.242 339.538 795.242 342.854C795.242 348.578 789.419 352.082 783.628 352.082C783.628 357.962 785.193 359.37 788.011 359.37C789.764 359.37 792.268 358.338 793.301 356.93C793.489 357.118 793.771 357.556 793.771 358.088C793.771 360.402 790.672 362.342 786.727 362.342C782.657 362.342 779.84 359.683 779.84 353.896C779.871 343.011 785.381 337.849 790.046 337.849ZM791.36 343.73C791.36 341.447 790.452 340.571 789.044 340.571C786.915 340.571 783.847 344.262 783.847 349.83C788.261 349.83 791.36 347.452 791.36 343.73Z" fill="#1D1D1B"></path>
      <path d="M800.627 340.727L797.653 339.82V338.913C799.218 338.318 800.658 338.099 802.474 338.099C803.1 338.099 803.789 338.193 804.446 338.444L802.881 345.857H802.943C805.166 340.915 808.391 338.006 811.678 338.006C813.807 338.006 815.497 339.507 815.497 342.479C815.497 344.043 815.059 346.514 814.777 348.578L813.9 353.802C813.744 354.928 813.525 356.805 813.525 357.837C813.525 359.432 814.307 360.058 815.81 360.371V361.184C814.683 361.778 813.431 362.091 811.928 362.091C810.426 362.091 809.549 361.278 809.549 359.87C809.549 358.65 809.893 356.273 810.144 354.74L811.052 349.173C811.302 347.671 811.521 345.575 811.521 344.262C811.521 342.072 810.551 341.353 809.392 341.353C806.669 341.353 802.787 346.576 802.599 353.489L802.317 361.685H798.185L800.627 340.727Z" fill="#1D1D1B"></path>
      <path d="M310.003 388.054L307.53 387.24V386.271C308.97 385.739 310.285 385.551 311.663 385.551C313.071 385.551 314.23 385.645 315.482 386.052V386.865C314.668 387.115 314.23 387.741 314.261 388.273L316.546 410.763H316.609L324.467 385.895L328.943 385.645L330.884 411.639H330.947L338.429 388.022L335.862 387.24V386.271C337.333 385.801 338.867 385.551 340.527 385.551C341.497 385.551 342.467 385.708 343.344 386.052V386.865C342.53 387.115 341.873 387.584 341.654 388.273L331.354 417.019L327.91 417.175L325.688 389.868H325.625L317.141 417.019L313.885 417.175L310.003 388.054Z" fill="#1D1D1B"></path>
      <path d="M351.797 392.902C355.146 392.902 356.993 394.591 356.993 397.907C356.993 403.631 351.17 407.135 345.379 407.135C345.379 413.015 346.944 414.423 349.762 414.423C351.515 414.423 354.019 413.39 355.052 411.983C355.24 412.171 355.522 412.609 355.522 413.14C355.522 415.455 352.423 417.394 348.478 417.394C344.408 417.394 341.591 414.736 341.591 408.949C341.591 398.063 347.132 392.902 351.797 392.902ZM353.08 398.783C353.08 396.499 352.172 395.623 350.763 395.623C348.635 395.623 345.567 399.315 345.567 404.882C349.981 404.882 353.08 402.505 353.08 398.783Z" fill="#1D1D1B"></path>
      <path d="M362.347 395.78L359.373 394.873V393.966C360.938 393.371 362.378 393.152 364.068 393.152C364.695 393.152 365.477 393.246 366.103 393.496L364.632 400.534H364.695L367.262 396.28C368.514 394.185 369.829 393.215 371.331 393.215C372.396 393.215 372.928 393.903 372.928 394.998C372.928 395.78 372.74 396.75 372.396 397.532C371.926 397.375 371.425 397.344 370.893 397.344C367.825 397.344 364.788 400.691 364.35 409.668L363.974 416.737H359.936L362.347 395.78Z" fill="#1D1D1B"></path>
      <path d="M375.338 404.006L377.342 384.425L374.337 383.518V382.611C375.839 382.079 377.311 381.829 379.283 381.829C380.066 381.829 380.848 381.923 381.474 382.11L378.657 403.412H378.719L381.443 401.285C383.478 399.69 386.014 395.811 386.734 392.808C389.113 392.808 389.99 393.434 389.99 394.403C389.99 396.249 386.922 399.846 383.353 402.255L381.255 403.694L387.36 413.046C388.174 414.266 389.113 415.048 390.522 415.674V416.487C389.614 417.019 388.831 417.207 387.516 417.207C386.076 417.207 384.762 416.487 383.478 414.141L378.469 404.913H378.406L377.592 416.643H373.429L375.338 404.006Z" fill="#1D1D1B"></path>
      <path d="M391.868 423.212C391.868 425.089 393.371 426.403 396.094 426.403C399.632 426.403 402.449 423.775 403.138 418.145L404.046 409.605H403.983C402.136 414.204 399.037 417.269 396.47 417.269C394.341 417.269 392.056 414.516 392.056 408.636C392.056 399.314 397.534 393.027 404.14 393.027C406.018 393.027 408.116 393.371 409.775 393.809L407.865 403.131C407.427 405.445 407.145 410.419 407.145 412.921C407.145 423.963 401.698 428.686 395.312 428.686C390.929 428.686 388.362 426.81 388.362 424.213C388.362 421.899 390.741 420.053 393.151 420.053C392.212 421.085 391.868 422.055 391.868 423.212ZM404.296 403.756L405.423 395.999C404.641 395.811 403.827 395.748 402.981 395.748C399.256 395.748 395.812 399.784 395.812 408.104C395.812 412.264 397.065 413.985 398.286 413.985C400.32 414.016 403.326 410.763 404.296 403.756Z" fill="#1D1D1B"></path>
      <path d="M422.673 392.902C426.022 392.902 427.869 394.591 427.869 397.907C427.869 403.631 422.047 407.135 416.255 407.135C416.255 413.015 417.82 414.423 420.607 414.423C422.36 414.423 424.864 413.39 425.897 411.983C426.085 412.171 426.367 412.609 426.367 413.14C426.367 415.455 423.268 417.394 419.323 417.394C415.253 417.394 412.436 414.736 412.436 408.949C412.498 398.063 418.039 392.902 422.673 392.902ZM423.988 398.783C423.988 396.499 423.08 395.623 421.671 395.623C419.542 395.623 416.474 399.315 416.474 404.882C420.888 404.882 423.988 402.505 423.988 398.783Z" fill="#1D1D1B"></path>
      <path d="M431.094 408.479L434.475 384.425L431.407 383.518V382.611C432.972 382.079 434.412 381.829 436.259 381.829C437.073 381.829 437.919 381.923 438.482 382.11L434.851 407.51C434.6 409.074 434.475 411.388 434.475 412.859C434.475 414.454 435.258 415.173 436.666 415.611V416.425C435.633 416.862 434.381 417.113 432.941 417.113C431.344 417.113 430.499 416.299 430.499 414.829C430.499 413.484 430.844 410.325 431.094 408.479Z" fill="#1D1D1B"></path>
      <path d="M450.347 392.902C453.697 392.902 455.544 394.591 455.544 397.907C455.544 403.631 449.721 407.135 443.929 407.135C443.929 413.015 445.495 414.423 448.281 414.423C450.034 414.423 452.538 413.39 453.572 411.983C453.759 412.171 454.041 412.609 454.041 413.14C454.041 415.455 450.942 417.394 446.997 417.394C442.928 417.394 440.11 414.736 440.11 408.949C440.141 398.063 445.682 392.902 450.347 392.902ZM451.662 398.783C451.662 396.499 450.754 395.623 449.345 395.623C447.216 395.623 444.148 399.315 444.148 404.882C448.563 404.882 451.662 402.505 451.662 398.783Z" fill="#1D1D1B"></path>
      <path d="M457.422 423.212C457.422 425.089 458.925 426.403 461.648 426.403C465.186 426.403 468.003 423.775 468.692 418.145L469.6 409.605H469.537C467.69 414.204 464.591 417.269 462.024 417.269C459.895 417.269 457.61 414.516 457.61 408.636C457.61 399.314 463.088 393.027 469.694 393.027C471.572 393.027 473.67 393.371 475.329 393.809L473.419 403.131C472.981 405.445 472.699 410.419 472.699 412.921C472.699 423.963 467.252 428.686 460.866 428.686C456.483 428.686 453.916 426.81 453.916 424.213C453.916 421.899 456.295 420.053 458.706 420.053C457.735 421.085 457.422 422.055 457.422 423.212ZM469.819 403.756L470.946 395.999C470.164 395.811 469.35 395.748 468.504 395.748C464.779 395.748 461.335 399.784 461.335 408.104C461.335 412.264 462.588 413.985 463.808 413.985C465.843 414.016 468.849 410.763 469.819 403.756Z" fill="#1D1D1B"></path>
      <path d="M488.227 392.902C491.577 392.902 493.424 394.591 493.424 397.907C493.424 403.631 487.601 407.135 481.809 407.135C481.809 413.015 483.375 414.423 486.161 414.423C487.914 414.423 490.418 413.39 491.451 411.983C491.639 412.171 491.921 412.609 491.921 413.14C491.921 415.455 488.822 417.394 484.877 417.394C480.807 417.394 477.99 414.736 477.99 408.949C478.021 398.063 483.562 392.902 488.227 392.902ZM489.542 398.783C489.542 396.499 488.634 395.623 487.225 395.623C485.096 395.623 482.028 399.315 482.028 404.882C486.411 404.882 489.542 402.505 489.542 398.783Z" fill="#1D1D1B"></path>
      <path d="M498.808 395.78L495.834 394.873V393.966C497.4 393.371 498.84 393.152 500.655 393.152C501.281 393.152 501.97 393.246 502.659 393.497L501.094 400.91H501.125C503.348 395.968 506.572 393.059 509.859 393.059C511.988 393.059 513.679 394.56 513.679 397.532C513.679 399.096 513.24 401.567 512.958 403.631L512.082 408.855C511.925 409.981 511.706 411.858 511.706 412.89C511.706 414.485 512.489 415.111 513.992 415.424V416.237C512.865 416.831 511.612 417.144 510.11 417.144C508.607 417.144 507.73 416.331 507.73 414.923C507.73 413.703 508.075 411.326 508.325 409.793L509.233 404.226C509.484 402.724 509.734 400.628 509.734 399.315C509.734 397.125 508.764 396.406 507.605 396.406C504.882 396.406 501 401.629 500.812 408.542L500.53 416.738H496.398L498.808 395.78Z" fill="#1D1D1B"></path>
      <path d="M519.846 400.91L521.442 384.425L518.437 383.518V382.611C520.002 382.079 521.724 381.829 523.383 381.829C524.197 381.829 524.98 381.923 525.606 382.11L523.039 399.846H523.07C525.074 395.686 528.079 392.996 531.241 392.996C533.62 392.996 535.06 394.779 535.06 397.469C535.06 399.064 534.685 401.535 534.34 403.568L533.464 408.667C533.276 409.824 533.088 411.826 533.088 412.827C533.088 414.423 533.808 415.048 535.373 415.361V416.174C534.246 416.769 532.994 417.081 531.491 417.081C529.989 417.081 529.112 416.268 529.112 414.861C529.112 413.641 529.488 411.138 529.738 409.512L530.615 404.131C530.865 402.693 531.116 400.347 531.116 399.221C531.116 397.093 530.208 396.311 528.924 396.311C526.483 396.311 522.945 400.44 522.475 407.385L521.881 416.643H517.811L519.846 400.91Z" fill="#1D1D1B"></path>
      <path d="M549.179 392.902C552.529 392.902 554.376 394.591 554.376 397.907C554.376 403.631 548.553 407.135 542.762 407.135C542.762 413.015 544.327 414.423 547.113 414.423C548.866 414.423 551.371 413.39 552.404 411.983C552.592 412.171 552.873 412.609 552.873 413.14C552.873 415.455 549.774 417.394 545.829 417.394C541.76 417.394 538.942 414.736 538.942 408.949C538.974 398.063 544.515 392.902 549.179 392.902ZM550.494 398.783C550.494 396.499 549.586 395.623 548.177 395.623C546.049 395.623 542.981 399.315 542.981 404.882C547.395 404.882 550.494 402.505 550.494 398.783Z" fill="#1D1D1B"></path>
      <path d="M557.976 408.479L559.541 398.626L559.792 395.748L556.88 394.841V393.934C558.446 393.34 559.98 393.121 561.733 393.121C562.609 393.121 563.298 393.184 563.924 393.402L561.733 407.666C561.545 409.105 561.357 411.607 561.357 412.859C561.357 414.454 561.952 415.173 563.298 415.611V416.425C562.265 416.862 561.107 417.113 559.667 417.113C558.101 417.113 557.35 416.299 557.35 414.892C557.319 413.516 557.726 410.419 557.976 408.479ZM560.324 386.083C560.324 384.488 561.576 383.08 563.048 383.08C564.3 383.08 565.27 384.05 565.27 385.395C565.27 387.053 563.956 388.398 562.547 388.398C561.232 388.398 560.324 387.522 560.324 386.083Z" fill="#1D1D1B"></path>
      <path d="M566.961 408.823C566.961 399.064 572.533 393.058 579.045 393.058C579.64 393.058 580.36 393.121 580.892 393.152L582.301 384.425L579.107 383.518V382.611C580.61 382.079 582.175 381.829 584.242 381.829C585.056 381.829 585.838 381.923 586.464 382.11L582.927 402.192C582.582 404.225 581.862 409.606 581.862 411.451C581.862 414.61 582.551 415.142 584.179 415.392V416.425C582.676 416.894 581.455 417.144 579.859 417.144C579.045 417.144 578.419 416.988 577.824 416.8L579.045 409.48H578.982C577.198 413.985 574.13 417.394 571.375 417.394C569.184 417.363 566.961 414.485 566.961 408.823ZM579.139 404.069L580.485 396.03C579.859 395.874 578.92 395.78 578.168 395.78C574.13 395.78 570.686 399.565 570.686 408.135C570.686 412.17 571.845 414.016 573.097 414.016C575.069 414.016 578.106 410.857 579.139 404.069Z" fill="#1D1D1B"></path>
    </g>
  </g>
  <defs>
    <clipPath id="clip0_242_2">
      <rect width="1000" height="600" fill="white"></rect>
    </clipPath>
    <clipPath id="clip1_242_2">
      <rect width="983" height="391" fill="white" transform="translate(115 104)"></rect>
    </clipPath>
  </defs>
</svg>
